<mxfile host="app.diagrams.net" agent="Mozilla/5.0 (Windows NT 6.1; Win64; x64) AppleWebKit/537.36 (KHTML, like Gecko) Chrome/122.0.6261.95 Safari/537.36" version="24.7.7">
  <diagram id="C5RBs43oDa-KdzZeNtuy" name="Page-1">
    <mxGraphModel dx="620" dy="431" grid="1" gridSize="10" guides="1" tooltips="1" connect="1" arrows="1" fold="1" page="1" pageScale="1" pageWidth="3300" pageHeight="4681" math="0" shadow="0">
      <root>
        <mxCell id="WIyWlLk6GJQsqaUBKTNV-0" />
        <mxCell id="WIyWlLk6GJQsqaUBKTNV-1" parent="WIyWlLk6GJQsqaUBKTNV-0" />
        <mxCell id="D4aKJ7zpc-61l3uTfC26-0" value="外部操作" style="rounded=1;whiteSpace=wrap;html=1;" vertex="1" parent="WIyWlLk6GJQsqaUBKTNV-1">
          <mxGeometry width="120" height="60" as="geometry" />
        </mxCell>
        <mxCell id="D4aKJ7zpc-61l3uTfC26-1" value="程序内部操作" style="rounded=0;whiteSpace=wrap;html=1;" vertex="1" parent="WIyWlLk6GJQsqaUBKTNV-1">
          <mxGeometry y="80" width="120" height="60" as="geometry" />
        </mxCell>
        <mxCell id="D4aKJ7zpc-61l3uTfC26-2" value="" style="rhombus;whiteSpace=wrap;html=1;" vertex="1" parent="WIyWlLk6GJQsqaUBKTNV-1">
          <mxGeometry y="160" width="80" height="80" as="geometry" />
        </mxCell>
        <mxCell id="D4aKJ7zpc-61l3uTfC26-11" style="edgeStyle=orthogonalEdgeStyle;rounded=0;orthogonalLoop=1;jettySize=auto;html=1;exitX=0.5;exitY=1;exitDx=0;exitDy=0;entryX=0.5;entryY=0;entryDx=0;entryDy=0;" edge="1" parent="WIyWlLk6GJQsqaUBKTNV-1" source="D4aKJ7zpc-61l3uTfC26-3" target="D4aKJ7zpc-61l3uTfC26-7">
          <mxGeometry relative="1" as="geometry" />
        </mxCell>
        <mxCell id="D4aKJ7zpc-61l3uTfC26-3" value="拖入文件夹" style="rounded=1;whiteSpace=wrap;html=1;" vertex="1" parent="WIyWlLk6GJQsqaUBKTNV-1">
          <mxGeometry x="340" y="120" width="120" height="60" as="geometry" />
        </mxCell>
        <mxCell id="D4aKJ7zpc-61l3uTfC26-4" value="程序内执行的逻辑" style="shape=parallelogram;perimeter=parallelogramPerimeter;whiteSpace=wrap;html=1;fixedSize=1;" vertex="1" parent="WIyWlLk6GJQsqaUBKTNV-1">
          <mxGeometry y="260" width="120" height="60" as="geometry" />
        </mxCell>
        <mxCell id="D4aKJ7zpc-61l3uTfC26-15" style="edgeStyle=orthogonalEdgeStyle;rounded=0;orthogonalLoop=1;jettySize=auto;html=1;exitX=0.5;exitY=1;exitDx=0;exitDy=0;" edge="1" parent="WIyWlLk6GJQsqaUBKTNV-1" source="D4aKJ7zpc-61l3uTfC26-5" target="D4aKJ7zpc-61l3uTfC26-13">
          <mxGeometry relative="1" as="geometry" />
        </mxCell>
        <mxCell id="D4aKJ7zpc-61l3uTfC26-5" value="提取文件夹内所有符合规则的漫画文件夹/压缩包" style="shape=parallelogram;perimeter=parallelogramPerimeter;whiteSpace=wrap;html=1;fixedSize=1;" vertex="1" parent="WIyWlLk6GJQsqaUBKTNV-1">
          <mxGeometry x="530" y="240" width="120" height="60" as="geometry" />
        </mxCell>
        <mxCell id="D4aKJ7zpc-61l3uTfC26-12" style="edgeStyle=orthogonalEdgeStyle;rounded=0;orthogonalLoop=1;jettySize=auto;html=1;exitX=1;exitY=0.5;exitDx=0;exitDy=0;" edge="1" parent="WIyWlLk6GJQsqaUBKTNV-1" source="D4aKJ7zpc-61l3uTfC26-7" target="D4aKJ7zpc-61l3uTfC26-5">
          <mxGeometry relative="1" as="geometry" />
        </mxCell>
        <mxCell id="D4aKJ7zpc-61l3uTfC26-7" value="点击开始按钮" style="rounded=0;whiteSpace=wrap;html=1;" vertex="1" parent="WIyWlLk6GJQsqaUBKTNV-1">
          <mxGeometry x="340" y="240" width="120" height="60" as="geometry" />
        </mxCell>
        <mxCell id="D4aKJ7zpc-61l3uTfC26-17" style="edgeStyle=orthogonalEdgeStyle;rounded=0;orthogonalLoop=1;jettySize=auto;html=1;exitX=0.5;exitY=1;exitDx=0;exitDy=0;" edge="1" parent="WIyWlLk6GJQsqaUBKTNV-1" source="D4aKJ7zpc-61l3uTfC26-13" target="D4aKJ7zpc-61l3uTfC26-16">
          <mxGeometry relative="1" as="geometry" />
        </mxCell>
        <mxCell id="D4aKJ7zpc-61l3uTfC26-13" value="计算提取漫画的基础信息，并保存至本地数据库" style="shape=parallelogram;perimeter=parallelogramPerimeter;whiteSpace=wrap;html=1;fixedSize=1;" vertex="1" parent="WIyWlLk6GJQsqaUBKTNV-1">
          <mxGeometry x="530" y="360" width="120" height="60" as="geometry" />
        </mxCell>
        <mxCell id="D4aKJ7zpc-61l3uTfC26-16" value="按照相似算法设置选项，计算提取漫画图片的hash，并保存至本地数据库" style="shape=parallelogram;perimeter=parallelogramPerimeter;whiteSpace=wrap;html=1;fixedSize=1;" vertex="1" parent="WIyWlLk6GJQsqaUBKTNV-1">
          <mxGeometry x="530" y="480" width="120" height="60" as="geometry" />
        </mxCell>
      </root>
    </mxGraphModel>
  </diagram>
</mxfile>
